<?xml version="1.0" encoding="utf-8"?>
<svg version="1.1" xmlns="http://www.w3.org/2000/svg" xmlns:xlink="http://www.w3.org/1999/xlink" x="0px" y="0px" viewBox="0 0 1740 1740" enable-background="new 0 0 1740 1740" xml:space="preserve">
    
    <g id="Fond_haut">
        <rect x="370" y="370.268" fill="#EFEFEF" width="1000" height="500" />
    </g>
    
    <g id="Fond_bas">
        <rect x="370" y="870.768" fill="#3454D1" width="1000" height="500" />
    </g>
    
    <g id="Traces">
        <g>
            <path fill="#C9B55D" d="M588.229,37.735c1.531,2.257,3.024,4.53,4.518,6.803c1.496,2.272,2.999,4.541,4.455,6.83
        c2.925,4.573,5.894,9.126,8.783,13.715c2.904,4.582,5.776,9.177,8.634,13.778l8.524,13.825l8.423,13.869l8.33,13.909l8.245,13.945
        l8.168,13.978c2.729,4.657,5.416,9.331,8.099,14.007c2.677,4.679,5.397,9.339,8.039,14.033l7.971,14.062l7.897,14.094
        l7.853,14.113l7.79,14.14l7.727,14.167l7.699,14.179c5.417,9.977,4.106,21.802-2.389,30.261l-3.57,4.624l-14.116,18.33
        c-4.689,6.125-9.464,12.171-14.195,18.257c-4.738,6.08-9.476,12.159-14.267,18.191l-14.332,18.131l-14.437,18.035
        c-4.799,6.024-9.646,12.004-14.499,17.978l-14.551,17.93l-14.653,17.837l-7.326,8.918l-7.379,8.87l-14.761,17.737l-14.853,17.653
        l-14.885,17.623c-10.005,11.674-19.932,23.419-30.001,35.035l-15.09,17.435c-5.016,5.824-10.076,11.609-15.15,17.38l8.984-58.183
        c5.777,11.72,11.615,23.412,17.341,35.156l17.131,35.254l16.926,35.35l16.743,35.435l16.563,35.519l16.364,35.612l8.114,17.838
        l8.067,17.859l15.987,35.787l0.853,1.91c9.09,20.347,3.932,43.493-11.072,58.253l-35.025,34.304l-17.619,17.048
        c-5.874,5.682-11.733,11.378-17.659,17.009l-17.729,16.94c-5.894,5.662-11.858,11.256-17.801,16.87l-17.84,16.832l-17.949,16.726
        c-5.978,5.58-11.962,11.155-17.995,16.681l-18.058,16.619l-18.156,16.524c-6.05,5.51-12.109,11.011-18.214,16.467l-18.279,16.404
        l-18.383,16.303c-6.111,5.45-12.301,10.824-18.457,16.23c-6.159,5.404-12.322,10.803-18.535,16.154l7.486-36.16l4.929,17.109
        l4.838,17.144l4.797,17.159l4.729,17.185l4.648,17.216l4.59,17.238l4.523,17.264l4.432,17.299l4.35,17.33l4.267,17.361
        c2.824,11.582,5.569,23.195,8.252,34.831l3.968,17.476l3.824,17.531c1.273,5.844,2.448,11.726,3.662,17.593
        c0.613,2.931,1.201,5.872,1.763,8.822c0.573,2.947,1.153,5.89,1.686,8.852c-1.577-2.563-3.106-5.144-4.644-7.722
        c-1.547-2.574-3.07-5.158-4.567-7.752c-3.006-5.182-6.051-10.35-8.998-15.555l-8.835-15.617l-8.691-15.672
        c-5.757-10.462-11.451-20.948-17.067-31.465l-8.392-15.786l-8.309-15.818l-8.227-15.849l-8.136-15.884l-8.069-15.909
        l-8.011-15.932l-7.931-15.963l-7.862-15.989l-7.821-16.004l-7.731-16.039c-5.159-10.703-3.304-22.973,3.746-31.606l3.74-4.554
        c5.197-6.343,10.443-12.637,15.693-18.927c5.253-6.288,10.472-12.608,15.77-18.852l15.845-18.779l15.949-18.677
        c5.304-6.238,10.654-12.431,16.014-18.614l16.072-18.558l16.17-18.462c5.376-6.168,10.801-12.287,16.232-18.401l16.279-18.356
        l16.387-18.25c5.466-6.08,10.911-12.18,16.426-18.212l16.499-18.141c5.484-6.062,11.034-12.06,16.569-18.072l16.609-18.033
        l33.431-35.859l-10.219,60.163l-17.156-35.242l-8.504-17.656l-8.457-17.677L473,746.417l-16.58-35.511l-16.4-35.595l-16.217-35.68
        l-16.012-35.776c-5.322-11.932-10.531-23.918-15.802-35.874l-0.918-2.081c-8.614-19.539-3.999-41.578,9.901-56.102
        c5.32-5.546,10.655-11.077,16.033-16.569l16.093-16.513c10.72-11.017,21.582-21.904,32.366-32.862l16.298-16.326l16.33-16.296
        l16.422-16.211l8.213-8.104l8.265-8.056l16.531-16.112l16.632-16.018c5.541-5.342,11.089-10.678,16.685-15.97l16.746-15.914
        l16.851-15.818c5.604-5.285,11.26-10.521,16.916-15.758c5.663-5.23,11.283-10.5,16.988-15.691l17.067-15.619l-5.959,34.885
        l-4.95-15.356l-4.921-15.368l-4.859-15.395l-4.795-15.422l-4.752-15.441l-4.677-15.473c-1.574-5.151-3.07-10.336-4.609-15.502
        c-1.533-5.169-3.062-10.339-4.549-15.528l-4.481-15.557l-4.404-15.59l-4.319-15.626l-4.225-15.666l-4.124-15.71
        c-1.359-5.243-2.703-10.493-4.015-15.757c-1.328-5.257-2.575-10.548-3.866-15.82c-0.652-2.633-1.258-5.287-1.869-7.937
        C589.421,43.05,588.806,40.401,588.229,37.735z" />
        </g>
        
        <g>
            <path fill="#C9B55D" d="M1322.572,239.778l9.077,30.945l8.961,30.969l8.877,30.986l8.797,31.002l8.774,31.007l8.669,31.028
        l8.668,31.028l8.579,31.046c2.515,9.1-0.504,18.423-7.025,24.385l-2.85,2.588l-35.652,32.465l-35.739,32.356l-35.755,32.335
        l-35.838,32.23l-35.85,32.215c-11.937,10.754-23.919,21.452-35.906,32.144l-35.996,32.031l-36.086,31.917l17.803-53.335
        l12.235,38.447l12.141,38.471l24.116,76.986c4.033,12.827,8.005,25.671,12.13,38.474l6.22,19.196
        c2.118,6.387,4.203,12.783,6.371,19.157l6.45,19.136l6.567,19.105l13.272,38.174c9.503,27.332-1.104,56.786-24.013,72.238
        l-9.13,6.136l-19.903,13.417c-6.634,4.472-13.278,8.927-19.949,13.334l-9.994,6.633l-10.034,6.562
        c-6.703,4.35-13.424,8.669-20.173,12.937c-13.501,8.532-27.118,16.86-40.874,24.941c-6.878,4.041-13.793,8.015-20.736,11.941
        l-10.445,5.834l-10.496,5.743l-10.552,5.645l-10.601,5.557c-3.527,1.864-7.1,3.648-10.649,5.473
        c-3.548,1.828-7.118,3.616-10.694,5.393c-7.131,3.592-14.329,7.067-21.514,10.564c-7.203,3.465-14.423,6.899-21.66,10.305
        c-14.479,6.8-29.031,13.473-43.671,19.987c-7.341,3.22-14.647,6.503-22.017,9.673c-7.381,3.15-14.716,6.382-22.142,9.451
        l31.778-65.995c0.234,5.952,0.529,11.894,0.712,17.854l0.566,17.878l0.412,17.903l0.248,17.929l0.091,17.954l-0.073,17.98
        l-0.255,18.01c-0.15,6.014-0.238,12.017-0.44,18.039c-0.189,6.02-0.363,12.037-0.628,18.07
        c-0.222,6.025-0.521,12.063-0.823,18.101c-0.31,6.039-0.662,12.085-1.046,18.137l-0.603,9.081l-0.68,9.094
        c-0.477,6.066-0.975,12.136-1.55,18.218c-0.553,6.078-1.175,12.168-1.846,18.265c-0.319,3.046-0.701,6.102-1.051,9.153
        l-1.178,9.174c-0.801,6.118-1.696,12.251-2.752,18.411c-0.74,4.314-4.836,7.212-9.15,6.472c-2.5-0.429-4.544-2.021-5.66-4.094
        c-2.931-5.519-5.701-11.064-8.377-16.624l-3.991-8.344c-1.287-2.788-2.607-5.571-3.863-8.364
        c-2.547-5.581-5.043-11.169-7.472-16.769c-2.45-5.596-4.823-11.205-7.175-16.817l-3.493-8.423l-3.416-8.436
        c-2.259-5.627-4.486-11.259-6.672-16.897c-2.177-5.64-4.351-11.28-6.448-16.933c-2.141-5.646-4.189-11.307-6.254-16.965
        c-2.076-5.656-4.04-11.33-6.065-16.995l-5.881-17.024l-5.699-17.054l-5.535-17.08l-5.377-17.105l-5.214-17.131l-5.06-17.156
        c-1.693-5.718-3.272-11.454-4.914-17.18c-6.21-21.661,2.119-44.047,19.207-56.728l12.571-9.267
        c6.464-4.774,13.019-9.385,19.528-14.08c6.52-4.674,13.104-9.235,19.653-13.858c13.139-9.173,26.368-18.188,39.669-27.075
        c6.654-4.438,13.323-8.847,20.01-13.226c6.705-4.347,13.398-8.715,20.156-12.967c3.369-2.145,6.744-4.279,10.141-6.373
        c3.396-2.097,6.768-4.235,10.186-6.292l10.234-6.208l10.283-6.12l10.339-6.022l10.39-5.932c6.947-3.918,13.922-7.787,20.934-11.59
        c14.024-7.606,28.188-14.966,42.467-22.121c7.141-3.576,14.31-7.101,21.497-10.594l10.801-5.203l10.841-5.132
        c7.219-3.436,14.465-6.826,21.721-10.197l21.768-10.114l-33.143,78.374l-7.179-39.773l-3.659-19.868l-3.776-19.838
        c-1.241-6.617-2.564-13.213-3.855-19.817l-4.005-19.777c-2.692-13.179-5.537-26.318-8.321-39.473l-16.787-78.909l-8.31-39.476
        l-8.216-39.501l-1.105-5.31c-3.932-18.902,4.107-37.527,18.908-48.026l39.333-27.818l39.423-27.704
        c13.153-9.22,26.31-18.434,39.512-27.591l39.569-27.52l39.58-27.505l39.664-27.4l39.68-27.38l39.766-27.271l-9.875,26.973
        l-4.126-31.944l-4.037-31.962l-4.036-31.962l-3.931-31.983l-3.907-31.988l-3.827-32.004l-3.744-32.021l-3.628-32.045
        c-0.468-4.131,2.502-7.859,6.633-8.327C1318.194,233.999,1321.564,236.329,1322.572,239.778z" />
        </g>
    </g>
    
    <g id="Lettres">
        <g>
            <path fill="#0C090D" d="M753.902,675.115c0,47.175-30.175,84.15-109.226,84.15H502.3V470.263h125.376
        c83.726,0,110.076,33.15,110.076,79.476c0,29.75-20.825,50.575-27.2,55.25C738.602,619.014,753.902,644.089,753.902,675.115z
         M671.452,558.663c0-19.55-12.75-28.9-39.525-28.9h-59.925v60.35h59.925C662.102,590.114,671.452,581.189,671.452,558.663z
         M636.601,643.239h-64.6v56.101h64.6c28.05,0,42.075-9.35,42.075-28.05C678.676,650.039,664.227,643.239,636.601,643.239z" />
            <path fill="#0C090D" d="M1250.027,646.639h-156.826v-64.6h156.826V646.639z" />
            <path fill="#EFEFEF" d="M646.801,1156.639H489.975v-64.601h156.826V1156.639z" />
            <path fill="#EFEFEF" d="M1127.631,1269.265h-76.501L923.204,980.263h76.926l89.676,206.552l89.25-206.552h76.926
        L1127.631,1269.265z" />
        </g>
    </g>
    
    <g id="Trace_superieure">
        <g>
            <path fill="#C9B55D" d="M542.892,1513.491l-5.483-27.687l-5.366-27.699l-5.281-27.707l-5.2-27.715l-5.176-27.717l-5.07-27.727
        l-5.068-27.728l-4.978-27.736c-1.055-5.878,0.329-11.628,3.428-16.214l2.393-3.521l25.543-37.578l25.654-37.49l25.673-37.475
        l25.783-37.388l25.794-37.379l12.912-18.677l12.96-18.64l25.986-37.227l26.102-37.134l-10.962,27.457l0.872-32.765
        c0.3-10.921,0.602-21.841,0.967-32.756l2.087-65.499l0.515-16.375c0.178-5.458,0.324-10.919,0.446-16.382
        c0.142-5.461,0.217-10.928,0.317-16.393c0.068-5.468,0.154-10.934,0.168-16.406l0.092-16.413l-0.029-16.424l-0.196-32.86
        c-0.064-10.773,3.358-20.754,9.209-28.872l7.929-11.013l11.229-15.605c3.743-5.202,7.501-10.39,11.3-15.543l5.679-7.745
        l5.74-7.692c3.848-5.109,7.723-10.195,11.642-15.241c7.841-10.091,15.858-20.026,24.088-29.773
        c4.114-4.874,8.287-9.698,12.5-14.485l6.368-7.138l6.446-7.07l6.531-6.995l6.606-6.928c2.192-2.319,4.453-4.576,6.679-6.865
        c2.224-2.291,4.481-4.551,6.748-6.803c4.502-4.533,9.104-8.977,13.687-13.438c4.611-4.437,9.248-8.85,13.91-13.242
        c9.333-8.775,18.776-17.453,28.356-26.011c4.821-4.251,9.589-8.55,14.455-12.762c4.882-4.197,9.694-8.457,14.645-12.594
        l-15.878,38.131c1.046-4.974,2.03-9.951,3.128-14.922l3.276-14.912l3.431-14.901l3.596-14.89l3.756-14.88l3.921-14.869
        l4.106-14.856c1.434-4.948,2.806-9.9,4.292-14.844c1.474-4.945,2.932-9.891,4.482-14.831c1.507-4.943,3.092-9.881,4.679-14.818
        c1.596-4.937,3.234-9.871,4.905-14.803l2.533-7.396l2.611-7.391c1.765-4.926,3.55-9.85,5.413-14.769
        c1.842-4.921,3.752-9.836,5.713-14.749c0.963-2.457,1.991-4.911,2.985-7.366l3.114-7.357c2.092-4.904,4.279-9.801,6.628-14.688
        c1.934-4.022,6.762-5.715,10.785-3.781c2.061,0.991,3.519,2.767,4.182,4.78c1.68,5.155,3.196,10.3,4.618,15.438l2.109,7.706
        c0.659,2.566,1.352,5.134,1.98,7.697c1.291,5.13,2.531,10.256,3.703,15.377c1.193,5.123,2.308,10.241,3.403,15.357l1.606,7.672
        l1.528,7.667c1,5.11,1.969,10.218,2.894,15.323c0.917,5.105,1.832,10.209,2.669,15.308c0.881,5.102,1.668,10.198,2.472,15.295
        c0.816,5.098,1.517,10.188,2.282,15.282l2.096,15.27l1.911,15.258l1.746,15.247l1.586,15.236l1.421,15.225l1.266,15.215
        c0.428,5.072,0.742,10.136,1.118,15.205c0.601,8.09-1.521,15.754-5.59,22.092l-10.289,16.039
        c-3.483,5.431-7.106,10.738-10.658,16.109c-3.569,5.355-7.236,10.624-10.849,15.941c-7.289,10.577-14.714,21.034-22.25,31.394
        c-3.773,5.176-7.57,10.33-11.394,15.46c-3.851,5.107-7.683,10.23-11.616,15.264c-1.95,2.532-3.91,5.055-5.904,7.548
        c-1.991,2.495-3.948,5.022-5.973,7.487l-6.045,7.423l-6.121,7.356l-6.206,7.281l-6.284,7.213
        c-4.221,4.781-8.483,9.525-12.803,14.218c-8.639,9.387-17.49,18.587-26.518,27.631c-4.515,4.521-9.075,9.003-13.661,13.461
        l-6.911,6.66l-6.972,6.606c-4.635,4.415-9.312,8.794-14.003,13.16l-14.074,13.097l17.138-39.885l-6.019,32.305l-2.941,16.159
        l-2.82,16.169c-0.956,5.388-1.841,10.783-2.743,16.176c-0.87,5.396-1.766,10.79-2.595,16.189
        c-0.849,5.398-1.673,10.798-2.465,16.201l-2.396,16.207l-9.558,64.831c-1.576,10.807-3.215,21.608-4.856,32.409l-4.951,32.4
        l-0.945,6.183c-1.258,8.234-4.847,15.5-10.017,21.275l-30.218,33.87l-30.335,33.777l-15.201,16.862l-15.248,16.825l-30.526,33.625
        l-30.538,33.616l-30.647,33.529l-30.666,33.514l-30.777,33.426l5.821-19.734l0.456,28.176l0.366,28.185l0.365,28.185l0.258,28.195
        l0.235,28.197l0.153,28.205l0.068,28.214l-0.049,28.225c-0.007,4.162-3.387,7.531-7.55,7.523
        C546.616,1519.557,543.574,1516.946,542.892,1513.491z" />
        </g>
    </g>
</svg>