<?xml version="1.0" encoding="utf-8"?>
<svg version="1.1" xmlns="http://www.w3.org/2000/svg" xmlns:xlink="http://www.w3.org/1999/xlink" x="0px" y="0px" viewBox="0 0 5000 2100" enable-background="new 0 0 5000 2100" xml:space="preserve">
    
    <g id="Eye">
        
        <path fill="#0C090D" d="M2250,1050c0,0-447.715,800-1000,800S250,1050,250,1050s447.715-800,1000-800S2250,1050,2250,1050z" />

        <radialGradient id="SVGID_1_" cx="1255.953" cy="1035.437" r="721.1898" gradientTransform="matrix(0.9941 0 0 0.9827 1.4794 32.4569)" gradientUnits="userSpaceOnUse">
            <stop offset="0.5343" style="stop-color:#3454D1" />
            <stop offset="0.5956" style="stop-color:#637BD9" />
            <stop offset="0.6606" style="stop-color:#8E9EDF" />
            <stop offset="0.7269" style="stop-color:#B1BBE5" />
            <stop offset="0.7936" style="stop-color:#CCD2E9" />
            <stop offset="0.8609" style="stop-color:#E0E2ED" />
            <stop offset="0.9292" style="stop-color:#EBECEE" />
            <stop offset="1" style="stop-color:#EFEFEF" />
        </radialGradient>
        <path fill="url(#SVGID_1_)" d="M2132.017,1050c0,0-394.893,494.284-882.017,494.284S367.983,1050,367.983,1050
    S762.875,555.716,1250,555.716S2132.017,1050,2132.017,1050z" />
        

        <radialGradient id="SVGID_2_" cx="1257.2269" cy="1034.0649" r="358.6799" gradientTransform="matrix(0.9941 0 0 0.9827 1.4794 32.4569)" gradientUnits="userSpaceOnUse">
            <stop offset="0.6667" style="stop-color:#FF3838" />
            <stop offset="1" style="stop-color:#3454D1" />
        </radialGradient>
        <ellipse fill="url(#SVGID_2_)" cx="1251.266" cy="1048.652" rx="356.557" ry="352.481" />
        

        <radialGradient id="SVGID_3_" cx="1257.2269" cy="1034.0649" r="149.8243" gradientTransform="matrix(0.9941 0 0 0.9827 1.4794 32.4569)" gradientUnits="userSpaceOnUse">
            <stop offset="0.9216" style="stop-color:#0C090D" />
            <stop offset="1" style="stop-color:#FF3838" />
        </radialGradient>
        <ellipse fill="url(#SVGID_3_)" cx="1251.266" cy="1048.652" rx="148.938" ry="147.235" />
        <ellipse fill="#EFEFEF" cx="1337.991" cy="921.501" rx="45.355" ry="44.836" />
        
    </g>
    
    <g id="Eye_2">
        
        <path fill="#0C090D" d="M4750,1050c0,0-447.715,800-1000,800s-1000-800-1000-800s447.715-800,1000-800S4750,1050,4750,1050z" />

        <radialGradient id="SVGID_4_" cx="3770.8354" cy="1035.437" r="721.1898" gradientTransform="matrix(0.9941 0 0 0.9827 1.4794 32.4569)" gradientUnits="userSpaceOnUse">
            <stop offset="0.5343" style="stop-color:#3454D1" />
            <stop offset="0.5956" style="stop-color:#637BD9" />
            <stop offset="0.6606" style="stop-color:#8E9EDF" />
            <stop offset="0.7269" style="stop-color:#B1BBE5" />
            <stop offset="0.7936" style="stop-color:#CCD2E9" />
            <stop offset="0.8609" style="stop-color:#E0E2ED" />
            <stop offset="0.9292" style="stop-color:#EBECEE" />
            <stop offset="1" style="stop-color:#EFEFEF" />
        </radialGradient>
        <path fill="url(#SVGID_4_)" d="M4632.017,1050c0,0-394.893,494.284-882.017,494.284S2867.983,1050,2867.983,1050
    S3262.875,555.716,3750,555.716S4632.017,1050,4632.017,1050z" />

        <radialGradient id="SVGID_5_" cx="3772.1094" cy="1034.0649" r="358.6799" gradientTransform="matrix(0.9941 0 0 0.9827 1.4794 32.4569)" gradientUnits="userSpaceOnUse">
            <stop offset="0.6667" style="stop-color:#FF3838" />
            <stop offset="1" style="stop-color:#3454D1" />
        </radialGradient>
        <ellipse fill="url(#SVGID_5_)" cx="3751.266" cy="1048.652" rx="356.557" ry="352.481" />

        <radialGradient id="SVGID_6_" cx="3772.1094" cy="1034.0649" r="149.8243" gradientTransform="matrix(0.9941 0 0 0.9827 1.4794 32.4569)" gradientUnits="userSpaceOnUse">
            <stop offset="0.9216" style="stop-color:#0C090D" />
            <stop offset="1" style="stop-color:#FF3838" />
        </radialGradient>
        <ellipse fill="url(#SVGID_6_)" cx="3751.266" cy="1048.652" rx="148.938" ry="147.235" />
        <ellipse fill="#EFEFEF" cx="3837.991" cy="921.501" rx="45.355" ry="44.836" />
        
    </g>
    
</svg>